<svg width="200" height="200" viewBox="0 0 100 100" xmlns="http://www.w3.org/2000/svg">
  <circle cx="50" cy="50" r="48" fill="#FFB35B" stroke="white" stroke-width="1.5" />

  <circle cx="50" cy="40" r="18" fill="none" stroke="white" stroke-width="1.2" />

  <g stroke="white" stroke-width="1.2" fill="none">
    <path d="M43.5 37a6.5 6.5 0 1 1 13 0a7 7 0 0 1 -13 0"/>
    
    <rect x="46.5" y="34" width="7" height="6.5" rx="0.5" ry="0.5"/>
    <circle cx="50" cy="37.25" r="1.5"/>
    
    <path d="M43.5 35a2 2 0 1 0 0 4"/>
    <path d="M56.5 35a2 2 0 1 1 0 4"/>
    
    <path d="M46.5 40a4.5 4.5 0 0 0 -1 2.5a4 4 0 0 1 1 2.5"/>
    <path d="M53.5 40a4.5 4.5 0 0 1 1 2.5a4 4 0 0 0 -1 2.5"/>
    <path d="M50 45.5v2.5"/>
    <path d="M50 48.5l-0.5 0.7l0.5 0.7l0.5 -0.7z"/>
  </g>

  <text x="50" y="70" text-anchor="middle" fill="white" font-family="Arial, sans-serif" font-weight="bold" font-size="6.5">
    AMKYAW AI
  </text>
  
  <text x="50" y="75" text-anchor="middle" fill="white" font-family="Arial, sans-serif" font-size="1.5" letter-spacing="0.1">
    DRIVE PROGRESS WITH INTELLIGENT SYSTEMS
  </text>
</svg>
